<svg xmlns="http://www.w3.org/2000/svg" viewBox="0 0 800 1100" width="800" height="1100"><rect width="800" height="1100" fill="#6d3cf5"/><line x1="358" y1="319" x2="561" y2="268" stroke="#d7ff3e" stroke-width="6" stroke-linecap="round" opacity="0.74"/><circle cx="142" cy="888" r="79" fill="#fbfaf6" opacity="0.67"/><circle cx="299" cy="1026" r="91" fill="#fbfaf6" opacity="0.5"/><line x1="429" y1="268" x2="62" y2="724" stroke="#d7ff3e" stroke-width="20" stroke-linecap="round" opacity="0.51"/><line x1="513" y1="267" x2="544" y2="310" stroke="#d7ff3e" stroke-width="22" stroke-linecap="round" opacity="0.85"/><line x1="795" y1="375" x2="623" y2="8" stroke="#fbfaf6" stroke-width="10" stroke-linecap="round" opacity="0.87"/><circle cx="742" cy="246" r="172" fill="#fbfaf6" opacity="0.63"/><circle cx="543" cy="988" r="230" fill="#d7ff3e" opacity="0.76"/><circle cx="283" cy="86" r="227" fill="#fbfaf6" opacity="0.5"/><circle cx="778" cy="129" r="143" fill="#d7ff3e" opacity="0.69"/><rect x="506" y="939" width="271" height="300" rx="120" fill="#fbfaf6" opacity="0.77" transform="rotate(-10 400 550)"/><line x1="207" y1="916" x2="140" y2="853" stroke="#d7ff3e" stroke-width="9" stroke-linecap="round" opacity="0.9"/><rect x="398" y="109" width="383" height="163" rx="0" fill="#d7ff3e" opacity="0.54" transform="rotate(17 400 550)"/><rect x="693" y="709" width="119" height="521" rx="0" fill="#fbfaf6" opacity="0.89" transform="rotate(-9 400 550)"/></svg>